<svg width="32" height="32" viewBox="0 0 32 32" xmlns="http://www.w3.org/2000/svg">
  <!-- 背景 -->
  <rect width="32" height="32" rx="8" fill="#0B0B0F"></rect>

  <!-- 大S（加粗 + 居中 + 占满） -->
  <path d="
    M22.5 9
    C22.5 7.5 20.5 6.5 17.5 6.5
    C14.5 6.5 12.5 7.8 12.5 9.5
    C12.5 11.5 14.5 12.2 17.5 13
    C21 14 23.5 15.2 23.5 18
    C23.5 21 20.5 23 17 23
    C13.5 23 10.5 21.5 10.5 18.8
    L13.5 18.8
    C13.5 20.2 15 21.2 17.2 21.2
    C19.4 21.2 20.8 20.2 20.8 18.7
    C20.8 17.2 19.5 16.6 16.8 15.8
    C13 14.8 10.5 13.8 10.5 10.8
    C10.5 7.8 13.5 5.8 17.5 5.8
    C21.5 5.8 24 7.8 24 10
    L22.5 10 Z" fill="#FFFFFF"></path>
</svg>